<svg width="1064" height="308" viewBox="0 0 1064 308" fill="none" xmlns="http://www.w3.org/2000/svg">
<path d="M32.085 22.1896V43.9412L21.3137 54.9216C5.94116 70.5033 0.712402 81.5882 0.712402 98.1111C0.712402 115.366 6.56861 127.706 21.8366 142.869L32.085 153.013V174.451V195.993H39.9281H47.7712V179.366V162.634L58.5425 167.758C86.5686 180.83 117.523 189.092 157.575 194.111C172.425 195.993 235.797 195.993 250.647 194.111C279.614 190.556 303.98 185.222 324.895 178.007C337.026 173.719 356.373 164.935 364.111 160.124L368.399 157.405L373.523 160.647C398.307 176.229 439.092 188.255 485.941 194.111C500.791 195.993 564.163 195.993 579.013 194.111C623.458 188.569 655.98 179.261 688.085 162.739C688.503 162.529 688.817 169.954 688.817 179.157V195.993H696.66H704.503V179.366V162.634L716.32 168.281C742.046 180.516 770.699 188.255 809.601 193.484C827.902 195.993 879.039 196.621 900.059 194.529C984.242 186.477 1045.31 156.987 1061.31 116.621C1064.66 108.15 1064.66 89.4314 1061.42 80.5425C1057.97 71.4445 1051.48 62.1373 1042.39 53.5621C1014.78 27.1046 965.105 9.01308 902.15 2.32027C882.909 0.333347 833.34 0.647067 814.307 2.84315C774.778 7.54903 743.405 15.8105 717.157 28.2549C710.569 31.3922 705.026 33.902 704.922 33.902C704.712 33.902 704.503 26.3726 704.503 17.1699V0.437924H696.66H688.817V17.4837V34.5294L678.778 29.6144C627.641 4.41178 548.791 -5.52287 476.529 4.09806C435.431 9.64054 398.516 21.2484 371.85 37.1438L368.085 39.3399L363.902 36.7255C340.686 22.085 300.739 9.53596 260.059 4.09806C186.438 -5.62743 103.091 5.35295 54.3595 31.183L47.7712 34.7386V17.5883V0.437924H39.9281H32.085V22.1896ZM230.778 17.1699C273.235 20.2026 313.078 29.719 342.359 43.8366L354.281 49.4837L348.634 55.2353C334.935 68.9347 329.078 81.902 329.078 98.8431C329.078 114.739 334.725 127.288 348.007 141.092L354.176 147.575L342.987 152.909C317.052 165.144 288.712 172.882 251.693 177.902C231.51 180.621 176.712 180.621 156.529 177.902C114.386 172.255 80.9216 162.216 55.4052 147.68L47.7712 143.288V98.5294V53.7713L52.268 50.9477C66.4902 41.9543 97.1307 30.451 120.974 25.2222C155.379 17.5883 194.908 14.6601 230.778 17.1699ZM559.144 17.1699C601.497 20.2026 641.444 29.719 670.621 43.732L682.333 49.3791L676.373 55.6536C662.987 69.6667 657.131 82.5294 657.026 98.2157C657.026 113.484 662.673 126.556 674.804 139.523C678.464 143.392 681.497 146.843 681.497 147.261C681.497 148.203 668.007 154.791 656.503 159.392C636.216 167.444 609.131 174.033 580.059 177.902C560.294 180.516 504.137 180.516 484.477 177.902C447.353 172.882 419.954 165.353 393.601 152.909L382.412 147.575L388.582 141.196C401.863 127.288 407.51 114.634 407.51 98.7386C407.405 82.4249 401.863 69.5621 388.895 56.2811L382.307 49.4837L395.17 43.4183C415.876 33.4837 439.301 26.4771 466.49 21.8758C497.758 16.6471 528.817 15.0784 559.144 17.1699ZM887.51 17.1699C940.007 20.9347 988.216 34.634 1017.6 54.1895C1029.31 62.0327 1040.4 73.6405 1044.69 82.634C1047.61 89.0131 1048.03 90.8954 1048.03 98.7386C1048.03 111.183 1044.16 119.026 1032.35 130.634C1006.31 156.15 954.333 174.242 892.216 179.366C873.497 180.935 829.575 179.993 812.425 177.797C776.346 172.987 748.32 165.353 723.118 153.431L710.882 147.575L718.098 139.732C725.732 131.366 732.111 120.595 734.412 111.915C736.503 103.967 736.294 90.7909 733.784 82.9477C730.856 73.4314 726.36 66.3203 717.994 57.4314L710.569 49.6928L720.294 44.7778C762.647 23.549 826.856 12.9869 887.51 17.1699ZM382.83 73.7451C389.837 83.0523 392.137 90.0588 391.614 100.307C390.987 110.869 387.222 118.712 378.02 128.542C368.294 139 368.817 139 359.928 129.902C355.431 125.301 350.935 119.34 348.843 115.366C345.601 109.196 345.288 107.941 345.288 98.7386C345.288 89.536 345.601 88.2811 348.843 81.5882C351.248 76.7778 354.804 72.0719 360.137 66.7386L367.876 58.8954L373 63.183C375.824 65.5882 380.216 70.2941 382.83 73.7451ZM32.085 98.4248L31.9804 130.634L27.9019 126.033C25.6013 123.523 22.1503 118.399 20.268 114.529C17.2353 108.255 16.9216 106.791 17.0261 98.2157C17.0261 91 17.549 87.6536 19.2222 84.098C21.2091 79.8105 30.6209 66.3203 31.6667 66.3203C31.8758 66.3203 32.085 80.7516 32.085 98.4248ZM688.817 98.4248L688.712 130.634L684.111 125.614C672.294 112.752 669.575 96.3333 676.791 82.0065C679.092 77.4052 687.248 66.3203 688.294 66.3203C688.608 66.3203 688.817 80.7516 688.817 98.4248ZM713.078 76.5686C723.745 91.8366 722.072 110.869 708.791 125.928L704.608 130.634V98.2157V65.7974L707.222 68.9347C708.686 70.6079 711.301 74.0588 713.078 76.5686Z" fill="white"/>
<path d="M907.902 233.85C898.699 237.196 890.961 245.876 888.346 255.915C886.255 264.281 886.778 279.967 889.497 287.078C892.529 295.026 898.595 301.824 905.497 304.752C913.131 308.098 925.575 308.098 933.104 304.856C941.366 301.301 948.059 292.935 949.837 284.046L950.569 280.699H942.83H935.091L933 285.091C931.431 288.438 929.654 290.216 925.993 291.993C920.033 295.026 915.013 294.399 909.889 289.902C900.372 281.536 900.163 257.797 909.575 249.954C917.941 242.948 929.654 245.248 933.523 254.66C934.778 257.588 934.987 257.693 942.725 257.693H950.569L949.941 253.928C948.582 245.457 940.738 236.987 931.536 233.85C927.144 232.281 912.189 232.386 907.902 233.85Z" fill="white"/>
<path d="M32.085 269.614V305.797H39.9281H47.7712V292.83V279.863L60.634 279.444C72.5556 279.131 73.915 278.922 77.7843 276.307C83.9543 272.229 86.9869 265.431 86.9869 256.02C86.8824 246.817 83.7451 240.647 76.8431 236.778C72.5556 234.268 71.4052 234.163 52.268 233.85L32.085 233.431V269.614ZM66.5948 248.595C70.6732 250.686 72.3464 255.078 70.8824 259.889C69.2092 265.431 65.6536 267.105 55.6144 267.105H47.7712V257.17V247.235H55.9281C60.3203 247.235 65.1307 247.863 66.5948 248.595Z" fill="white"/>
<path d="M136.66 269.719V305.797H144.817H152.974L166.569 282.059L180.059 258.216L180.373 282.059L180.582 305.797H188.425H196.268V269.719V233.641H187.693L179.013 233.745L165.941 256.752L152.869 279.863L152.556 256.752L152.346 233.641H144.503H136.66V269.719Z" fill="white"/>
<path d="M244.373 234.686C244.373 235.209 248.974 243.261 254.726 252.36L265.078 268.987L254.726 285.405C249.078 294.399 243.85 302.66 243.327 303.81C242.281 305.693 242.595 305.797 251.484 305.797H260.791L267.484 294.294C275.222 281.118 273.863 280.909 282.124 296.072L287.353 305.797H296.765C301.889 305.797 306.072 305.379 306.072 304.961C306.072 304.542 301.157 296.176 295.092 286.556C289.026 276.935 284.111 268.778 284.111 268.464C284.111 268.15 288.817 260.412 294.569 251.314C300.32 242.216 305.026 234.477 305.026 234.163C305.026 233.85 300.948 233.745 295.928 233.85L286.83 234.163L283.275 240.438C281.288 243.889 278.464 248.804 277.105 251.314L274.49 255.81L268.529 245.039L262.673 234.163L253.575 233.85C247.719 233.641 244.373 233.954 244.373 234.686Z" fill="white"/>
<path d="M346.856 240.438V247.235H357.314H367.771V276.516V305.797H375.614H383.457V276.516V247.235H394.438H405.418V240.438V233.641H376.137H346.856V240.438Z" fill="white"/>
<path d="M451.431 269.719V305.797H478.621H505.81V299V292.203H486.464H467.118V282.791V273.379H484.373H501.627V267.105V260.83H484.373H467.118V254.033V247.235H485.941H504.765V240.438V233.641H478.098H451.431V269.719Z" fill="white"/>
<path d="M554.961 269.614V305.797H562.804H570.647V292.83V279.863L583.51 279.444C595.222 279.131 596.791 278.922 600.242 276.516C606.203 272.438 609.654 265.118 609.654 256.752C609.549 248.804 608.294 244.726 604.32 240.647C598.673 234.582 596.895 234.268 575.144 233.85L554.961 233.431V269.614ZM591.457 249.745C593.131 251.209 593.654 252.987 593.654 256.543C593.549 264.699 589.993 267.105 577.863 267.105H570.647V257.065V247.026L579.954 247.444C587.274 247.654 589.68 248.176 591.457 249.745Z" fill="white"/>
<path d="M688.817 237.196C688.817 240.542 688.608 240.752 684.425 241.379C668.007 243.889 658.072 252.882 656.712 266.582C655.039 282.582 665.601 295.131 682.333 297.222L688.294 297.954L688.608 301.824L688.922 305.797H696.66H704.399L704.712 301.824C705.026 297.954 705.131 297.954 710.359 297.327C721.026 295.967 729.915 290.216 733.889 282.059C736.712 276.203 737.026 264.49 734.621 258.739C730.856 249.954 720.817 243.052 709.627 241.484C704.608 240.752 704.503 240.647 704.503 237.196V233.641H696.66H688.817V237.196ZM688.817 269.719C688.817 284.255 688.712 284.882 686.725 284.882C683.17 284.882 677.837 282.163 675.431 279.235C671.039 273.484 671.248 265.327 675.954 259.68C678.987 256.02 681.706 254.765 685.993 254.66L688.817 254.556V269.719ZM714.02 256.961C725.209 264.49 721.654 282.373 708.373 284.569L704.503 285.196V269.824V254.556H707.536C709.105 254.556 712.033 255.601 714.02 256.961Z" fill="white"/>
<path d="M785.026 269.719V305.797H812.739H840.451V299V292.203H820.582H800.712V282.791V273.379H817.967H835.222V267.105V260.83H817.967H800.712V254.033V247.235H819.536H838.359V240.438V233.641H811.693H785.026V269.719Z" fill="white"/>
<path d="M993.131 240.438V247.235H1004.11H1015.09V276.516V305.797H1022.93H1030.78V276.516V247.235H1041.24H1051.69V240.438V233.641H1022.41H993.131V240.438Z" fill="white"/>
</svg>
